<svg width="26" height="26" viewBox="0 0 26 26" fill="none" xmlns="http://www.w3.org/2000/svg">
<path d="M5.3378 8.54065C6.51701 8.54065 7.47296 7.5847 7.47296 6.40548C7.47296 5.22627 6.51701 4.27032 5.3378 4.27032C4.15858 4.27032 3.20264 5.22627 3.20264 6.40548C3.20264 7.5847 4.15858 8.54065 5.3378 8.54065Z" stroke="black" stroke-width="2.13516" stroke-linecap="round" stroke-linejoin="round"/>
<path d="M12.8109 8.54065C13.9902 8.54065 14.9461 7.5847 14.9461 6.40548C14.9461 5.22627 13.9902 4.27032 12.8109 4.27032C11.6317 4.27032 10.6758 5.22627 10.6758 6.40548C10.6758 7.5847 11.6317 8.54065 12.8109 8.54065Z" stroke="black" stroke-width="2.13516" stroke-linecap="round" stroke-linejoin="round"/>
<path d="M20.2841 8.54065C21.4633 8.54065 22.4192 7.5847 22.4192 6.40548C22.4192 5.22627 21.4633 4.27032 20.2841 4.27032C19.1049 4.27032 18.1489 5.22627 18.1489 6.40548C18.1489 7.5847 19.1049 8.54065 20.2841 8.54065Z" stroke="black" stroke-width="2.13516" stroke-linecap="round" stroke-linejoin="round"/>
<path d="M5.3378 21.3516C6.51701 21.3516 7.47296 20.3957 7.47296 19.2165C7.47296 18.0372 6.51701 17.0813 5.3378 17.0813C4.15858 17.0813 3.20264 18.0372 3.20264 19.2165C3.20264 20.3957 4.15858 21.3516 5.3378 21.3516Z" stroke="black" stroke-width="2.13516" stroke-linecap="round" stroke-linejoin="round"/>
<path d="M12.8109 21.3516C13.9902 21.3516 14.9461 20.3957 14.9461 19.2165C14.9461 18.0372 13.9902 17.0813 12.8109 17.0813C11.6317 17.0813 10.6758 18.0372 10.6758 19.2165C10.6758 20.3957 11.6317 21.3516 12.8109 21.3516Z" stroke="black" stroke-width="2.13516" stroke-linecap="round" stroke-linejoin="round"/>
<path d="M5.33789 8.54065V17.0813" stroke="black" stroke-width="2.13516" stroke-linecap="round" stroke-linejoin="round"/>
<path d="M12.811 8.54065V17.0813" stroke="black" stroke-width="2.13516" stroke-linecap="round" stroke-linejoin="round"/>
<path d="M20.284 8.54065V10.6758C20.284 11.2421 20.0591 11.7852 19.6586 12.1856C19.2582 12.586 18.7151 12.811 18.1489 12.811H5.33789" stroke="black" stroke-width="2.13516" stroke-linecap="round" stroke-linejoin="round"/>
</svg>
