<svg width="21" height="22" viewBox="0 0 21 22" fill="none" xmlns="http://www.w3.org/2000/svg">
<path d="M0 10.4924C0 10.2553 0.0790386 10.0478 0.246996 9.87982C0.414952 9.72174 0.622429 9.64271 0.839785 9.64271H2.85527C3.0825 9.64271 3.27022 9.72174 3.4283 9.8897C3.5765 10.0577 3.65553 10.2553 3.65553 10.4924C3.65553 10.7295 3.58638 10.9271 3.43818 11.095C3.28998 11.263 3.09238 11.342 2.86515 11.342H0.849665C0.622429 11.342 0.424833 11.263 0.256876 11.095C0.0889186 10.9271 0 10.7295 0 10.4924ZM2.82563 17.3391C2.82563 17.1118 2.90467 16.9143 3.05286 16.7364L4.5052 15.3236C4.6534 15.1655 4.85099 15.0964 5.08811 15.0964C5.32522 15.0964 5.52282 15.1754 5.6809 15.3236C5.83897 15.4718 5.91801 15.6595 5.91801 15.8868C5.91801 16.1239 5.83897 16.3412 5.6809 16.5191L4.27796 17.922C3.87289 18.2381 3.46782 18.2381 3.06274 17.922C2.90467 17.7639 2.82563 17.5663 2.82563 17.3391ZM2.82563 3.66541C2.82563 3.43818 2.90467 3.24058 3.05286 3.06274C3.25046 2.89479 3.45794 2.81575 3.68517 2.81575C3.90253 2.81575 4.10013 2.89479 4.26808 3.05286L5.6809 4.5052C5.83897 4.6534 5.91801 4.85099 5.91801 5.08811C5.91801 5.32522 5.83897 5.52282 5.6809 5.6809C5.52282 5.83897 5.32522 5.91801 5.08811 5.91801C4.85099 5.91801 4.6534 5.83897 4.5052 5.6809L3.06274 4.26808C2.90467 4.11001 2.82563 3.90253 2.82563 3.66541ZM5.34498 10.4924C5.34498 9.57355 5.57222 8.714 6.03657 7.92362C6.50092 7.13323 7.12335 6.50092 7.92362 6.03657C8.72388 5.57222 9.57355 5.34498 10.4924 5.34498C11.184 5.34498 11.8459 5.4833 12.4881 5.75994C13.1204 6.03657 13.6737 6.40212 14.1281 6.86648C14.5925 7.33083 14.958 7.87422 15.2248 8.50653C15.4916 9.13883 15.6299 9.81066 15.6299 10.5022C15.6299 11.431 15.4026 12.2905 14.9383 13.0809C14.4739 13.8713 13.8515 14.4937 13.0611 14.958C12.2707 15.4224 11.4112 15.6496 10.4825 15.6496C9.55379 15.6496 8.69424 15.4224 7.90386 14.958C7.11347 14.4937 6.49104 13.8713 6.02669 13.0809C5.5821 12.2806 5.34498 11.4211 5.34498 10.4924ZM7.02455 10.4924C7.02455 11.4606 7.36047 12.2806 8.04217 12.9623C8.714 13.644 9.53403 13.9898 10.5022 13.9898C11.4705 13.9898 12.2905 13.644 12.9722 12.9623C13.6539 12.2806 13.9997 11.4606 13.9997 10.4924C13.9997 9.54391 13.6539 8.73376 12.9722 8.05205C12.2905 7.38023 11.4705 7.04431 10.5022 7.04431C9.54391 7.04431 8.72388 7.38023 8.05205 8.05205C7.36047 8.73376 7.02455 9.54391 7.02455 10.4924ZM9.65259 18.1789C9.65259 17.9418 9.73162 17.7442 9.89958 17.5861C10.0675 17.428 10.2651 17.349 10.4924 17.349C10.7295 17.349 10.937 17.428 11.095 17.5861C11.2531 17.7442 11.3322 17.9418 11.3322 18.1789V20.145C11.3322 20.3821 11.2531 20.5895 11.0852 20.7575C10.9172 20.9255 10.7196 21.0045 10.4924 21.0045C10.2651 21.0045 10.0577 20.9255 9.89958 20.7575C9.73162 20.5895 9.65259 20.3821 9.65259 20.145V18.1789ZM9.65259 2.86515V0.849665C9.65259 0.622429 9.73162 0.424833 9.89958 0.256876C10.0675 0.0889186 10.2651 0 10.5022 0C10.7394 0 10.9271 0.0790386 11.095 0.246996C11.263 0.414952 11.342 0.612549 11.342 0.839785V2.86515C11.342 3.09238 11.263 3.2801 11.095 3.43818C10.9271 3.59625 10.7295 3.66541 10.5022 3.66541C10.275 3.66541 10.0675 3.58638 9.90946 3.43818C9.75138 3.28998 9.65259 3.09238 9.65259 2.86515ZM15.1062 15.8868C15.1062 15.6595 15.1853 15.4718 15.3335 15.3335C15.4817 15.1754 15.6694 15.1062 15.8868 15.1062C16.1239 15.1062 16.3215 15.1853 16.4795 15.3335L17.922 16.7463C18.0801 16.9143 18.1591 17.1217 18.1591 17.349C18.1591 17.5762 18.0801 17.7738 17.922 17.9319C17.5268 18.2381 17.1316 18.2381 16.7364 17.9319L15.3335 16.5289C15.1853 16.3511 15.1062 16.1436 15.1062 15.8868ZM15.1062 5.09799C15.1062 4.85099 15.1853 4.6534 15.3335 4.51508L16.7364 3.06274C16.9044 2.90467 17.102 2.82563 17.3193 2.82563C17.5564 2.82563 17.754 2.90467 17.9121 3.07262C18.0801 3.24058 18.1591 3.43818 18.1591 3.66541C18.1591 3.91241 18.0801 4.11989 17.922 4.27796L16.4795 5.69078C16.3017 5.84885 16.1041 5.92789 15.8868 5.92789C15.6595 5.92789 15.4817 5.84885 15.3335 5.69078C15.1853 5.5327 15.1062 5.3351 15.1062 5.09799ZM17.3391 10.4924C17.3391 10.2553 17.4181 10.0577 17.5762 9.87982C17.7343 9.72174 17.922 9.64271 18.1394 9.64271H20.1351C20.3623 9.64271 20.5599 9.73162 20.7279 9.89958C20.8958 10.0675 20.9847 10.2651 20.9847 10.4924C20.9847 10.7196 20.8958 10.9172 20.7279 11.0852C20.5599 11.2531 20.3623 11.3322 20.1351 11.3322H18.1394C17.9121 11.3322 17.7145 11.2531 17.5663 11.0852C17.4181 10.9172 17.3391 10.7295 17.3391 10.4924Z" fill="black"/>
</svg>
