<svg width="21" height="21" viewBox="0 0 21 21" fill="none" xmlns="http://www.w3.org/2000/svg">
<path d="M13.0578 18.0801V1.99965C13.0578 0.902209 12.1546 0 11.0404 0H3.02192C1.91041 0 1.00445 0.895275 1.00445 1.99965V18.0801H0V20.089H14.0623V18.0801H13.0578ZM3.01335 2.0089H11.0489V8.0356H3.01335V2.0089ZM13.0578 10.0445H14.0612C15.1713 10.0445 16.0712 10.9468 16.0712 12.0513V15.076C16.0712 15.6256 16.517 16.0712 17.0756 16.0712C17.6304 16.0712 18.0801 15.6182 18.0801 15.076V10.0445L16.0712 8.0356V6.0267L14.0623 4.0178L15.0667 3.01335L20.089 8.0356V15.0664C20.089 16.7308 18.7365 18.0801 17.0756 18.0801C15.4114 18.0801 14.0623 16.7276 14.0623 15.0667V12.0534H13.0578V10.0445Z" fill="black"/>
</svg>
