<svg width="34" height="32" viewBox="0 0 34 32" fill="none" xmlns="http://www.w3.org/2000/svg">
<path d="M7.08333 10.6666C8.64814 10.6666 9.91667 9.47268 9.91667 7.99992C9.91667 6.52716 8.64814 5.33325 7.08333 5.33325C5.51853 5.33325 4.25 6.52716 4.25 7.99992C4.25 9.47268 5.51853 10.6666 7.08333 10.6666Z" stroke="black" stroke-width="2.13516" stroke-linecap="round" stroke-linejoin="round"/>
<path d="M17 10.6666C18.5648 10.6666 19.8333 9.47268 19.8333 7.99992C19.8333 6.52716 18.5648 5.33325 17 5.33325C15.4352 5.33325 14.1666 6.52716 14.1666 7.99992C14.1666 9.47268 15.4352 10.6666 17 10.6666Z" stroke="black" stroke-width="2.13516" stroke-linecap="round" stroke-linejoin="round"/>
<path d="M26.9166 10.6666C28.4814 10.6666 29.7499 9.47268 29.7499 7.99992C29.7499 6.52716 28.4814 5.33325 26.9166 5.33325C25.3518 5.33325 24.0833 6.52716 24.0833 7.99992C24.0833 9.47268 25.3518 10.6666 26.9166 10.6666Z" stroke="black" stroke-width="2.13516" stroke-linecap="round" stroke-linejoin="round"/>
<path d="M7.08333 26.6666C8.64814 26.6666 9.91667 25.4727 9.91667 23.9999C9.91667 22.5272 8.64814 21.3333 7.08333 21.3333C5.51853 21.3333 4.25 22.5272 4.25 23.9999C4.25 25.4727 5.51853 26.6666 7.08333 26.6666Z" stroke="black" stroke-width="2.13516" stroke-linecap="round" stroke-linejoin="round"/>
<path d="M17 26.6666C18.5648 26.6666 19.8333 25.4727 19.8333 23.9999C19.8333 22.5272 18.5648 21.3333 17 21.3333C15.4352 21.3333 14.1666 22.5272 14.1666 23.9999C14.1666 25.4727 15.4352 26.6666 17 26.6666Z" stroke="black" stroke-width="2.13516" stroke-linecap="round" stroke-linejoin="round"/>
<path d="M7.08337 10.6667V21.3334" stroke="black" stroke-width="2.13516" stroke-linecap="round" stroke-linejoin="round"/>
<path d="M17 10.6667V21.3334" stroke="black" stroke-width="2.13516" stroke-linecap="round" stroke-linejoin="round"/>
<path d="M26.9167 10.6667V13.3334C26.9167 14.0407 26.6182 14.7189 26.0868 15.219C25.5555 15.7191 24.8348 16.0001 24.0834 16.0001H7.08337" stroke="black" stroke-width="2.13516" stroke-linecap="round" stroke-linejoin="round"/>
</svg>
