<svg width="20" height="14" viewBox="0 0 20 14" fill="none" xmlns="http://www.w3.org/2000/svg">
<path d="M8.05186 10.6213L14.3054 1.9462C14.5125 1.659 14.8954 1.57362 15.2003 1.74668C15.4747 1.90245 15.6093 2.22403 15.5401 2.52885L15.5094 2.62958L11.6413 12.6589C11.2215 13.7473 10.0196 14.2812 8.95669 13.8513C8.87326 13.8176 8.79207 13.7783 8.71361 13.7338C7.71386 13.1663 7.35264 11.8763 7.90681 10.8525L7.97567 10.7345L8.05186 10.6213ZM16.6078 2.42625C17.3619 3.05193 18.0445 3.79454 18.629 4.64928C19.1532 5.41595 19.658 6.34428 19.9483 7.10399C20.0991 7.49879 19.9089 7.94407 19.5233 8.09856C19.1378 8.25304 18.703 8.05822 18.5521 7.66342C18.4549 7.40894 18.3251 7.12484 18.175 6.83253L16.1266 8.04362C15.768 8.2556 15.3096 8.1298 15.1026 7.76265C14.9128 7.4261 15.0002 7.00356 15.2923 6.7722L15.3769 6.71405L17.3942 5.51975L17.1639 5.19867C16.8401 4.76618 16.486 4.37022 16.1067 4.01173L16.4866 3.02479C16.5245 2.92661 16.5533 2.82683 16.5734 2.72648L16.5971 2.57567L16.6078 2.42625ZM13.9805 0.828305C13.8316 0.916899 13.6943 1.02957 13.5742 1.16466L13.46 1.30714L12.9193 2.05731C12.2179 1.80764 11.4895 1.6461 10.7515 1.57581L10.7512 4.31147C10.7512 4.73542 10.4156 5.0791 10.0016 5.0791C9.62211 5.0791 9.30847 4.79032 9.25884 4.41564L9.25199 4.31147L9.25161 1.55899C7.65575 1.67519 6.06913 2.22185 4.66322 3.22992C3.84769 3.81469 3.13663 4.58324 2.54556 5.48644L4.62672 6.71678C4.98526 6.92875 5.1081 7.39823 4.9011 7.76538C4.71135 8.10193 4.3103 8.23568 3.96861 8.09236L3.8771 8.04635L1.80396 6.82123C1.67626 7.09371 1.55768 7.37421 1.44852 7.6618C1.29853 8.05695 0.86413 8.25278 0.47825 8.09919C0.09237 7.9456 -0.0988612 7.50076 0.051123 7.10561C0.857163 4.98201 2.12935 3.17258 3.80329 1.97232C6.89362 -0.243537 10.7341 -0.543967 13.9805 0.828305Z" fill="black"/>
</svg>
