<svg width="38" height="34" viewBox="0 0 38 34" fill="none" xmlns="http://www.w3.org/2000/svg">
<path d="M36 2L23.9373 31.4746C23.8558 31.6314 23.7251 31.7642 23.5606 31.8573C23.3961 31.9505 23.2048 32 23.0094 32C22.8139 32 22.6226 31.9505 22.4581 31.8573C22.2936 31.7642 22.1629 31.6314 22.0814 31.4746L15.5861 20.0122L2.59547 14.2811C2.4178 14.2092 2.26723 14.0939 2.16167 13.9488C2.05611 13.8036 2 13.6348 2 13.4623C2 13.2899 2.05611 13.1211 2.16167 12.9759C2.26723 12.8308 2.4178 12.7154 2.59547 12.6436L36 2Z" stroke="black" stroke-width="2.13516" stroke-linecap="round" stroke-linejoin="round"/>
</svg>
