<svg width="20" height="17" viewBox="0 0 20 17" fill="none" xmlns="http://www.w3.org/2000/svg">
<path d="M3.52446 0C2.85985 0 2.29593 0.42 2.09453 1L0 7V15C0 15.2652 0.106093 15.5196 0.29494 15.7071C0.483787 15.8946 0.739918 16 1.00699 16H2.01398C2.28105 16 2.53718 15.8946 2.72602 15.7071C2.91487 15.5196 3.02096 15.2652 3.02096 15V14H8.358C8.16034 13.3514 8.05858 12.6777 8.0559 12C8.05752 10.7905 8.37469 9.60209 8.97648 8.55056C9.57828 7.49903 10.4442 6.62029 11.4897 6H2.01398L3.52446 1.5H14.6013L15.7896 5.03C16.4068 5.09391 17.0129 5.23849 17.5921 5.46L16.0312 1C15.8298 0.42 15.2659 0 14.6013 0H3.52446ZM14.0978 7C13.9669 7 13.8562 7.09 13.836 7.21L13.6447 8.53C13.3426 8.66 13.0506 8.82 12.7887 9L11.5401 8.5C11.4293 8.5 11.2984 8.5 11.2279 8.63L10.2209 10.36C10.1605 10.47 10.1806 10.6 10.2813 10.68L11.3488 11.5C11.3286 11.67 11.3185 11.83 11.3185 12C11.3185 12.17 11.3286 12.33 11.3488 12.5L10.2813 13.32C10.1907 13.4 10.1605 13.53 10.2209 13.64L11.2279 15.37C11.2883 15.5 11.4192 15.5 11.5401 15.5L12.7887 15C13.0506 15.18 13.3325 15.35 13.6447 15.47L13.836 16.79C13.8562 16.91 13.9568 17 14.0978 17H16.1118C16.2226 17 16.3333 16.91 16.3535 16.79L16.5448 15.47C16.8469 15.34 17.1188 15.18 17.3907 15L18.6293 15.5C18.7602 15.5 18.8911 15.5 18.9616 15.37L19.9686 13.64C20.029 13.53 19.9988 13.4 19.9081 13.32L18.8307 12.5C18.8508 12.33 18.8709 12.17 18.8709 12C18.8709 11.83 18.8609 11.67 18.8307 11.5L19.8981 10.68C19.9887 10.6 20.0189 10.47 19.9585 10.36L18.9515 8.63C18.8911 8.5 18.7602 8.5 18.6293 8.5L17.3907 9C17.1188 8.82 16.8469 8.65 16.5347 8.53L16.3434 7.21C16.3333 7.09 16.2226 7 16.1118 7H14.0978ZM3.52446 8C3.92506 8 4.30926 8.15804 4.59253 8.43934C4.8758 8.72064 5.03494 9.10218 5.03494 9.5C5.03494 9.89782 4.8758 10.2794 4.59253 10.5607C4.30926 10.842 3.92506 11 3.52446 11C3.12385 11 2.73966 10.842 2.45638 10.5607C2.17311 10.2794 2.01398 9.89782 2.01398 9.5C2.01398 9.10218 2.17311 8.72064 2.45638 8.43934C2.73966 8.15804 3.12385 8 3.52446 8ZM15.1048 10.5C15.9406 10.5 16.6153 11.17 16.6153 12C16.6153 12.83 15.9406 13.5 15.1048 13.5C14.2589 13.5 13.5943 12.83 13.5943 12C13.5943 11.17 14.269 10.5 15.1048 10.5Z" fill="black"/>
</svg>
