<svg width="35" height="35" viewBox="0 0 35 35" fill="none" xmlns="http://www.w3.org/2000/svg">
<path d="M17.5 35C27.1425 35 35 27.1425 35 17.5C35 7.8575 27.1425 0 17.5 0C7.8575 0 0 7.8575 0 17.5C0 27.1425 7.8575 35 17.5 35ZM18.8125 24.5C18.8125 25.2175 18.2175 25.8125 17.5 25.8125C16.7825 25.8125 16.1875 25.2175 16.1875 24.5L16.1875 15.75C16.1875 15.0325 16.7825 14.4375 17.5 14.4375C18.2175 14.4375 18.8125 15.0325 18.8125 15.75L18.8125 24.5ZM15.89 9.835C15.9775 9.6075 16.1 9.4325 16.2575 9.2575C16.4325 9.1 16.625 8.9775 16.835 8.89C17.045 8.8025 17.2725 8.75 17.5 8.75C17.7275 8.75 17.955 8.8025 18.165 8.89C18.375 8.9775 18.5675 9.1 18.7425 9.2575C18.9 9.4325 19.0225 9.6075 19.11 9.835C19.1975 10.045 19.25 10.2725 19.25 10.5C19.25 10.7275 19.1975 10.955 19.11 11.165C19.0225 11.375 18.9 11.5675 18.7425 11.7425C18.5675 11.9 18.375 12.0225 18.165 12.11C17.745 12.285 17.255 12.285 16.835 12.11C16.625 12.0225 16.4325 11.9 16.2575 11.7425C16.1 11.5675 15.9775 11.375 15.89 11.165C15.8025 10.955 15.75 10.7275 15.75 10.5C15.75 10.2725 15.8025 10.045 15.89 9.835Z" fill="#FF4423"/>
</svg>
