<svg width="38" height="29" viewBox="0 0 38 29" fill="none" xmlns="http://www.w3.org/2000/svg">
<path d="M5.7 12.4286C7.79594 12.4286 9.5 10.5708 9.5 8.28571C9.5 6.00067 7.79594 4.14286 5.7 4.14286C3.60406 4.14286 1.9 6.00067 1.9 8.28571C1.9 10.5708 3.60406 12.4286 5.7 12.4286ZM32.3 12.4286C34.3959 12.4286 36.1 10.5708 36.1 8.28571C36.1 6.00067 34.3959 4.14286 32.3 4.14286C30.2041 4.14286 28.5 6.00067 28.5 8.28571C28.5 10.5708 30.2041 12.4286 32.3 12.4286ZM34.2 14.5H30.4C29.355 14.5 28.4109 14.9596 27.7222 15.704C30.115 17.1346 31.8131 19.7174 32.1812 22.7857H36.1C37.1509 22.7857 38 21.86 38 20.7143V18.6429C38 16.3578 36.2959 14.5 34.2 14.5ZM19 14.5C22.6753 14.5 25.65 11.2569 25.65 7.25C25.65 3.24308 22.6753 0 19 0C15.3247 0 12.35 3.24308 12.35 7.25C12.35 11.2569 15.3247 14.5 19 14.5ZM23.56 16.5714H23.0672C21.8322 17.2187 20.4606 17.6071 19 17.6071C17.5394 17.6071 16.1737 17.2187 14.9328 16.5714H14.44C10.6637 16.5714 7.6 19.9116 7.6 24.0286V25.8929C7.6 27.6083 8.87656 29 10.45 29H27.55C29.1234 29 30.4 27.6083 30.4 25.8929V24.0286C30.4 19.9116 27.3362 16.5714 23.56 16.5714ZM10.2778 15.704C9.58906 14.9596 8.645 14.5 7.6 14.5H3.8C1.70406 14.5 0 16.3578 0 18.6429V20.7143C0 21.86 0.849062 22.7857 1.9 22.7857H5.81281C6.18688 19.7174 7.885 17.1346 10.2778 15.704Z" fill="black"/>
</svg>
