<svg width="38" height="38" viewBox="0 0 38 38" fill="none" xmlns="http://www.w3.org/2000/svg">
<path d="M0 7.27923C0 3.25902 3.25902 0 7.27923 0H30.7208C34.741 0 38 3.25902 38 7.27923V30.7208C38 34.741 34.741 38 30.7208 38H7.27923C3.25902 38 0 34.741 0 30.7208V7.27923ZM29.4598 13.1739C29.9896 12.6439 29.9896 11.7846 29.4598 11.2546C28.9297 10.7246 28.0703 10.7246 27.5402 11.2546L14.9286 23.8664L10.4596 19.3974C9.92964 18.8675 9.07036 18.8675 8.54036 19.3974C8.01035 19.9275 8.01035 20.7868 8.54036 21.3169L13.9689 26.7455C14.4989 27.2753 15.3582 27.2753 15.8882 26.7455L29.4598 13.1739Z" fill="#212121"/>
</svg>
