<svg width="18" height="18" viewBox="0 0 18 18" fill="none" xmlns="http://www.w3.org/2000/svg">
<path d="M16 2L11.033 15.7548C10.9995 15.828 10.9456 15.89 10.8779 15.9334C10.8102 15.9769 10.7314 16 10.6509 16C10.5704 16 10.4916 15.9769 10.4239 15.9334C10.3562 15.89 10.3024 15.828 10.2688 15.7548L7.59429 10.4057L2.2452 7.73117C2.17203 7.69764 2.11004 7.64381 2.06657 7.57608C2.02311 7.50835 2 7.42957 2 7.34909C2 7.26861 2.02311 7.18983 2.06657 7.1221C2.11004 7.05437 2.17203 7.00054 2.2452 6.96701L16 2Z" stroke="black" stroke-width="2.13516" stroke-linecap="round" stroke-linejoin="round"/>
</svg>
